# xmcd CD database file
#
# Track frame offsets:
#	182
#	10472
#	21887
#	33595
#	46737
#	60107
#	72482
#	85867
#	98340
#	110807
#	122582
#	134432
#	147707
#	160175
#	175457
#	189090
#	205360
#	219240
#
# Disc length: 3233 seconds
#
# Revision: 4
# Processed by: cddbd v1.5.2PL0 Copyright (c) Steve Scherf et al.
# Submitted via: CDex 1.70beta2
#
DISCID=fa0c9f12
DTITLE=Various Artist - Acoustic to Electric Blues - Disk 2
DYEAR=1992
DGENRE=Blues
TTITLE0=john lee hooker - dimples
TTITLE1=john lee hooker - boom boom
TTITLE2=john lee hooker - boogie chillen
TTITLE3=elmore james - dust my broom
TTITLE4=elmore james - standing at the crossroads
TTITLE5=elmore james - blues before sunrise
TTITLE6=b.b. king - sweet little angel
TTITLE7=b.b. king - everyday I have the blues
TTITLE8=b.b. king - rock me baby
TTITLE9=muddy waters - baby please don't go
TTITLE10=muddy waters - got my mojo working
TTITLE11=muddy waters - i'm your hoochie coochie man
TTITLE12=howlin' wolf - ain't superstitious
TTITLE13=howlin' wolf - killing floor
TTITLE14=howlin' wolf - highway 49
TTITLE15=sonny boy williamson - bye bye bird
TTITLE16=sonny boy williamson - out on the water coast
TTITLE17=sonny boy williamson - 23 hours too long
EXTD=YEAR: 1992
EXTT0=John Lee Hooker
EXTT1=John Lee Hooker
EXTT2=John Lee Hooker
EXTT3=Elmore James
EXTT4=Elmore James
EXTT5=Elmore James
EXTT6=B.B. King
EXTT7=B.B. King
EXTT8=B.B. King
EXTT9=Muddy Waters
EXTT10=Muddy Waters
EXTT11=Muddy Waters
EXTT12=Howlin' Wolf
EXTT13=Howlin' Wolf
EXTT14=Howlin' Wolf
EXTT15=Sonny Boy Williamson
EXTT16=Sonny Boy Williamson
EXTT17=Sonny Boy Williamson
PLAYORDER=
